<?xml version="1.0" encoding="UTF-8" standalone="no"?>
<svg
   width="24"
   height="24"
   viewBox="0 0 24 24"
   version="1.1"
   id="svg59"
   sodipodi:docname="instagram.svg"
   inkscape:version="1.1.2 (0a00cf5339, 2022-02-04)"
   xmlns:inkscape="http://www.inkscape.org/namespaces/inkscape"
   xmlns:sodipodi="http://sodipodi.sourceforge.net/DTD/sodipodi-0.dtd"
   xmlns="http://www.w3.org/2000/svg"
   xmlns:svg="http://www.w3.org/2000/svg">
  <defs
     id="defs63" />
  <sodipodi:namedview
     id="namedview61"
     pagecolor="#ffffff"
     bordercolor="#999999"
     borderopacity="1"
     inkscape:pageshadow="0"
     inkscape:pageopacity="0"
     inkscape:pagecheckerboard="0"
     showgrid="false"
     inkscape:snap-global="true"
     inkscape:zoom="18.375"
     inkscape:cx="17.904762"
     inkscape:cy="8.8979592"
     inkscape:window-width="1366"
     inkscape:window-height="707"
     inkscape:window-x="0"
     inkscape:window-y="0"
     inkscape:window-maximized="1"
     inkscape:current-layer="svg59" />
  <path
     d="M14.829 6.302c-.738-.034-.96-.04-2.829-.04s-2.09.007-2.828.04c-1.899.087-2.783.986-2.87 2.87-.033.738-.041.959-.041 2.828s.008 2.09.041 2.829c.087 1.879.967 2.783 2.87 2.87.737.033.959.041 2.828.041 1.87 0 2.091-.007 2.829-.041 1.899-.086 2.782-.988 2.87-2.87.033-.738.04-.96.04-2.829s-.007-2.09-.04-2.828c-.088-1.883-.973-2.783-2.87-2.87zm-2.829 9.293c-1.985 0-3.595-1.609-3.595-3.595 0-1.985 1.61-3.594 3.595-3.594s3.595 1.609 3.595 3.594c0 1.985-1.61 3.595-3.595 3.595zm3.737-6.491c-.464 0-.84-.376-.84-.84 0-.464.376-.84.84-.84.464 0 .84.376.84.84 0 .463-.376.84-.84.84zm-1.404 2.896c0 1.289-1.045 2.333-2.333 2.333s-2.333-1.044-2.333-2.333c0-1.289 1.045-2.333 2.333-2.333s2.333 1.044 2.333 2.333zm-2.333-12c-6.627 0-12 5.373-12 12s5.373 12 12 12 12-5.373 12-12-5.373-12-12-12zm6.958 14.886c-.115 2.545-1.532 3.955-4.071 4.072-.747.034-.986.042-2.887.042s-2.139-.008-2.886-.042c-2.544-.117-3.955-1.529-4.072-4.072-.034-.746-.042-.985-.042-2.886 0-1.901.008-2.139.042-2.886.117-2.544 1.529-3.955 4.072-4.071.747-.035.985-.043 2.886-.043s2.14.008 2.887.043c2.545.117 3.957 1.532 4.071 4.071.034.747.042.985.042 2.886 0 1.901-.008 2.14-.042 2.886z"
     id="path57" />
  <path
     style="fill:#ffffff;stroke-width:0.0544218"
     d="M 8.8435374,18.906288 C 7.6882503,18.800783 6.9007831,18.466817 6.2282076,17.797124 5.7018282,17.273001 5.4418642,16.808026 5.2459249,16.040201 5.0611363,15.316072 4.9838563,13.527668 5.0278326,10.993132 5.0722386,8.4338231 5.134924,7.9749097 5.5593365,7.1020408 5.8600267,6.4836259 6.4752343,5.8605092 7.0779876,5.5638659 8.0099967,5.1051802 8.663593,5.0349445 12,5.0349445 c 3.332576,0 3.984751,0.069855 4.922013,0.5271979 0.598555,0.2920694 1.214386,0.9167391 1.518111,1.5398984 0.423541,0.8689913 0.484982,1.3153216 0.530649,3.8548222 0.04555,2.53309 -0.03238,4.362458 -0.216545,5.083338 -0.195178,0.763978 -0.456766,1.23199 -0.982969,1.758646 -0.689358,0.689952 -1.448267,1.000293 -2.721862,1.113051 -0.711742,0.06301 -5.5018436,0.05868 -6.2058596,-0.0056 z m 6.0136056,-1.190846 c 1.639261,-0.120705 2.388081,-0.667412 2.759601,-2.014762 0.08888,-0.322337 0.09754,-0.65087 0.09754,-3.70068 0,-3.0498093 -0.0087,-3.3783427 -0.09754,-3.7006803 -0.143358,-0.5199022 -0.326425,-0.8857058 -0.58202,-1.1629943 -0.495588,-0.5376485 -1.09482,-0.77204 -2.177581,-0.8517673 -0.880618,-0.064843 -4.833667,-0.064843 -5.7142859,0 C 7.5035964,6.4052624 6.7547762,6.9519697 6.3832556,8.2993197 6.2943737,8.6216573 6.2857143,8.9501907 6.2857143,12 c 0,3.650717 -0.00203,3.623667 0.3250273,4.338398 0.1539388,0.336412 0.5492778,0.775576 0.8644229,0.960249 0.355667,0.208417 0.9799251,0.372432 1.5790498,0.414872 0.8209393,0.05815 5.0203747,0.05954 5.8029287,0.0019 z"
     id="path614" />
  <path
     style="fill:#ffffff;stroke-width:0.0544218"
     d="M 11.511879,15.533296 C 9.4686994,15.222789 8.0977263,13.269039 8.5169715,11.265306 8.6160793,10.791633 8.9527879,10.100972 9.2605395,9.7400908 9.9884003,8.8865739 10.917545,8.4485066 12,8.4485066 c 1.373136,0 2.570181,0.7511432 3.188015,2.0004734 0.501982,1.015066 0.498018,2.090157 -0.01154,3.129251 -0.42772,0.87221 -1.362676,1.639689 -2.278517,1.87037 -0.423945,0.106782 -1.006508,0.14238 -1.38608,0.08469 z M 12.684,14.252565 c 0.162575,-0.04816 0.396641,-0.146674 0.520146,-0.218909 0.325718,-0.190508 0.766853,-0.680752 0.926664,-1.029825 0.411049,-0.897849 0.249567,-1.899891 -0.420317,-2.608195 C 13.228316,9.8858058 12.703056,9.6598639 12,9.6598639 c -0.703056,0 -1.228316,0.2259419 -1.710493,0.7357721 -0.8518282,0.900684 -0.861054,2.287812 -0.02121,3.188241 0.318769,0.341762 0.601047,0.52699 0.997004,0.654224 0.380674,0.122323 1.032199,0.128966 1.418694,0.01446 z"
     id="path653" />
  <path
     style="fill:#ffffff;stroke-width:0.0544218"
     d="M 11.511879,15.533296 C 10.31823,15.351894 9.3550613,14.64456 8.8126363,13.55102 8.3144173,12.546601 8.3141885,11.455582 8.8119855,10.44898 9.4313972,9.196459 10.623357,8.4485066 12,8.4485066 c 1.376643,0 2.568603,0.7479524 3.188015,2.0004734 0.501982,1.015066 0.498018,2.090157 -0.01154,3.129251 -0.42772,0.87221 -1.362676,1.639689 -2.278517,1.87037 -0.423945,0.106782 -1.006508,0.14238 -1.38608,0.08469 z m 1.233624,-1.305645 c 1.851278,-0.62365 2.177359,-3.074489 0.557352,-4.189082 -0.72935,-0.5018068 -1.87636,-0.5018068 -2.60571,0 -1.3954674,0.960106 -1.3955854,2.962675 -2.29e-4,3.922703 0.548326,0.377259 1.393299,0.487131 2.04859,0.266379 z"
     id="path692" />
  <path
     style="fill:#ffffff;stroke-width:0.0544218"
     d="M 15.428571,9.0099215 C 15.24388,8.9345746 15.02334,8.6754741 14.957853,8.4568995 14.83771,8.0558965 15.113098,7.6070976 15.554003,7.485358 c 0.242589,-0.066982 0.421487,-0.02661 0.655853,0.1480092 0.458057,0.3412829 0.425453,1.0234865 -0.06315,1.3214085 -0.179121,0.1092169 -0.521201,0.1354855 -0.718132,0.055146 z"
     id="path731" />
</svg>
