<?xml version="1.0" encoding="UTF-8" standalone="no"?>
<svg
   width="24"
   height="24"
   viewBox="0 0 24 24"
   version="1.1"
   id="svg804"
   sodipodi:docname="twitter.svg"
   inkscape:version="1.1.2 (0a00cf5339, 2022-02-04)"
   xmlns:inkscape="http://www.inkscape.org/namespaces/inkscape"
   xmlns:sodipodi="http://sodipodi.sourceforge.net/DTD/sodipodi-0.dtd"
   xmlns="http://www.w3.org/2000/svg"
   xmlns:svg="http://www.w3.org/2000/svg">
  <defs
     id="defs808" />
  <sodipodi:namedview
     id="namedview806"
     pagecolor="#ffffff"
     bordercolor="#999999"
     borderopacity="1"
     inkscape:pageshadow="0"
     inkscape:pageopacity="0"
     inkscape:pagecheckerboard="0"
     showgrid="false"
     inkscape:zoom="15.791667"
     inkscape:cx="11.968338"
     inkscape:cy="12"
     inkscape:window-width="1366"
     inkscape:window-height="707"
     inkscape:window-x="0"
     inkscape:window-y="0"
     inkscape:window-maximized="1"
     inkscape:current-layer="svg804" />
  <path
     d="M12 0c-6.627 0-12 5.373-12 12s5.373 12 12 12 12-5.373 12-12-5.373-12-12-12zm6.066 9.645c.183 4.04-2.83 8.544-8.164 8.544-1.622 0-3.131-.476-4.402-1.291 1.524.18 3.045-.244 4.252-1.189-1.256-.023-2.317-.854-2.684-1.995.451.086.895.061 1.298-.049-1.381-.278-2.335-1.522-2.304-2.853.388.215.83.344 1.301.359-1.279-.855-1.641-2.544-.889-3.835 1.416 1.738 3.533 2.881 5.92 3.001-.419-1.796.944-3.527 2.799-3.527.825 0 1.572.349 2.096.907.654-.128 1.27-.368 1.824-.697-.215.671-.67 1.233-1.263 1.589.581-.07 1.135-.224 1.649-.453-.384.578-.87 1.084-1.433 1.489z"
     id="path802" />
  <path
     style="fill:#ffffff;stroke-width:0.0633245"
     d="M 8.5549382,18.0443 C 7.8502411,17.92106 6.8186758,17.571064 6.1821731,17.239253 l -0.5146269,-0.268277 0.7915567,-0.03723 c 0.9054832,-0.04259 1.553164,-0.197622 2.243515,-0.537026 0.4523446,-0.222391 1.049013,-0.599726 1.0492386,-0.663542 6.96e-5,-0.01905 -0.1793972,-0.06538 -0.39881,-0.102965 -0.5109108,-0.08751 -1.0244297,-0.331479 -1.4075169,-0.668685 -0.3013771,-0.265283 -0.6685335,-0.77484 -0.753657,-1.045961 -0.0437,-0.139185 -0.033286,-0.142583 0.4502981,-0.146931 0.2722679,-0.0025 0.5520246,-0.02789 0.6216815,-0.05653 0.1404056,-0.05773 0.144946,-0.05473 -0.3331493,-0.220363 C 7.1001815,13.204018 6.3451446,12.308522 6.1497364,11.379469 6.0382837,10.849575 6.0384576,10.849277 6.3727653,10.997157 c 0.1614854,0.07143 0.4629414,0.145232 0.6699022,0.163999 L 7.4189599,11.195277 7.0315496,10.82575 C 6.4739229,10.293864 6.1922121,9.7039341 6.154718,8.9895782 6.126932,8.460186 6.1882434,8.0734245 6.368244,7.6426222 L 6.460192,7.4225602 7.0770618,8.0208145 C 8.456263,9.3583952 10.152729,10.161985 11.949561,10.328842 l 0.456159,0.04236 -0.0368,-0.4388926 c -0.09708,-1.1579371 0.541026,-2.2623312 1.613354,-2.7923043 0.471769,-0.2331612 0.494566,-0.2376294 1.212327,-0.2376294 0.688639,0 0.756101,0.011648 1.150939,0.1987255 0.230682,0.109299 0.534833,0.3029926 0.675892,0.4304303 l 0.256469,0.2317048 0.400625,-0.103607 c 0.220345,-0.056984 0.607222,-0.1989552 0.859729,-0.315492 0.315722,-0.1457118 0.459102,-0.1857603 0.459102,-0.1282345 0,0.1677798 -0.533888,0.8772929 -0.829279,1.1020737 -0.166842,0.1269605 -0.304973,0.252546 -0.306956,0.2790789 -0.0054,0.071949 0.472634,-0.013803 1.00687,-0.1806246 0.25972,-0.081101 0.48443,-0.1352438 0.499356,-0.120318 0.01493,0.014926 -0.271499,0.325775 -0.6365,0.6907758 L 18.06721,9.6505265 18.02753,10.344094 c -0.171333,2.994501 -1.863717,5.656748 -4.412755,6.941592 -0.588547,0.296658 -1.305726,0.549892 -1.994723,0.704332 -0.635893,0.142537 -2.3834978,0.173487 -3.0651148,0.05428 z"
     id="path921" />
</svg>
